<?xml version="1.0" encoding="utf-8"?>
<svg id="master-artboard" viewBox="0 0 700.1768798828125 224.6115264892578" version="1.1" xmlns="http://www.w3.org/2000/svg" x="0px" y="0px" style="enable-background:new 0 0 336 235.2;" width="700.1768798828125px" height="224.6115264892578px" xmlns:xlink="http://www.w3.org/1999/xlink"><rect id="ee-background" x="0" y="0" width="700.1768798828125" height="224.6115264892578" style="fill: white; fill-opacity: 0; pointer-events: none;"/><g transform="matrix(1.2760416269302368, 0, 0, 1.2760416269302368, -300.2413024902344, -376.94336128234863)"><metadata id="metadata653316">
    
  </metadata><linearGradient spreadMethod="pad" y2="30%" x2="-10%" y1="120%" x1="30%" id="3d_gradient2-logo-6c70686d-1e55-42fd-b381-49805b78f3e3">
    <stop id="stop653291" stop-opacity="1" stop-color="#ffffff" offset="0%"/>
    <stop id="stop653293" stop-opacity="1" stop-color="#000000" offset="100%"/>
  </linearGradient><linearGradient gradientTransform="rotate(-30)" spreadMethod="pad" y2="30%" x2="-10%" y1="120%" x1="30%" id="3d_gradient3-logo-6c70686d-1e55-42fd-b381-49805b78f3e3">
    <stop id="stop653296" stop-opacity="1" stop-color="#ffffff" offset="0%"/>
    <stop id="stop653298" stop-opacity="1" stop-color="#cccccc" offset="50%"/>
    <stop id="stop653300" stop-opacity="1" stop-color="#000000" offset="100%"/>
  </linearGradient><g id="logo-group">
    <image id="container" x="272" y="144" width="480" height="480" transform="translate(0 0)" style="display: none;" xlink:href=""/>
    <g id="logo-center" transform="translate(0 0)">
      <image id="icon_container" x="0" y="0" style="display: none;" xlink:href=""/>
      <g id="slogan" style="font-style:normal;font-weight:300;font-size:32px;line-height:1;font-family:Overpass;font-variant-ligatures:none;text-align:center;text-anchor:middle" transform="translate(0 0)">
        <path id="path653318" style="font-style:normal;font-weight:300;font-size:32px;line-height:1;font-family:Overpass;font-variant-ligatures:none;text-align:center;text-anchor:middle" d="m 245.39775,0 h -2.24 v -15.232 -1.344 q -0.096,0.224 -0.32,0.672 -0.192,0.448 -0.288,0.672 l -6.88,15.616 -6.464,-15.616 q -0.064,-0.192 -0.256,-0.608 -0.192,-0.416 -0.256,-0.64 V -15.232 0 h -2.24 v -22.4 h 1.92 l 6.944,16.192 q 0.096,0.192 0.256,0.608 0.192,0.416 0.288,0.64 0.096,-0.224 0.256,-0.64 0.192,-0.416 0.288,-0.608 l 7.04,-16.192 h 1.952 z" stroke-width="0" stroke-linejoin="miter" stroke-miterlimit="2" fill="#ff6600" stroke="#ff6600" transform="translate(0 381.172) translate(262.37525000000005 56.624) scale(0.75) translate(-226.45375 22.4)"/>
        <path id="path653320" style="font-style:normal;font-weight:300;font-size:32px;line-height:1;font-family:Overpass;font-variant-ligatures:none;text-align:center;text-anchor:middle" d="m 261.06925,0 v -1.6 q -2.208,1.984 -4.8,1.984 -2.56,0 -4.064,-1.408 -1.504,-1.44 -1.504,-4.128 0,-2.656 1.696,-4.032 1.728,-1.376 4.256,-1.376 2.272,0 4.416,1.152 v -1.376 q 0,-4 -3.584,-4 -2.304,0 -4.864,1.76 l -0.64,-1.92 q 2.816,-1.792 5.728,-1.792 0.992,0 1.856,0.256 0.864,0.224 1.696,0.832 0.864,0.576 1.376,1.76 0.512,1.152 0.512,2.816 V 0 Z m -4.576,-1.568 q 2.528,0 4.576,-2.528 v -3.168 q -2.016,-1.344 -4.192,-1.344 -1.76,0 -2.944,0.896 -1.152,0.864 -1.152,2.56 0,1.632 0.96,2.624 0.992,0.96 2.752,0.96 z" stroke-width="0" stroke-linejoin="miter" stroke-miterlimit="2" fill="#ff6600" stroke="#ff6600" transform="translate(0 381.172) translate(282.810875 60.872) scale(0.75) translate(-250.70125 16.736)"/>
        <path id="path653322" style="font-style:normal;font-weight:300;font-size:32px;line-height:1;font-family:Overpass;font-variant-ligatures:none;text-align:center;text-anchor:middle" d="m 270.49425,-20.128 q -0.416,0.416 -1.056,0.416 -0.64,0 -1.056,-0.416 -0.416,-0.416 -0.416,-1.056 0,-0.64 0.416,-1.088 0.448,-0.448 1.056,-0.448 0.64,0 1.056,0.448 0.416,0.448 0.416,1.088 0,0.64 -0.416,1.056 z M 268.31825,0 v -16.352 h 2.24 V 0 Z" stroke-width="0" stroke-linejoin="miter" stroke-miterlimit="2" fill="#ff6600" stroke="#ff6600" transform="translate(0 381.172) translate(298.009625 56.384) scale(0.75) translate(-267.96625 22.72)"/>
        <path id="path653324" style="font-style:normal;font-weight:300;font-size:32px;line-height:1;font-family:Overpass;font-variant-ligatures:none;text-align:center;text-anchor:middle" d="m 280.95675,0.384 q -3.232,0 -5.632,-2.848 l 1.568,-1.376 q 1.888,2.24 4.256,2.24 1.408,0 2.304,-0.608 0.896,-0.64 0.896,-1.76 0,-0.704 -0.32,-1.248 -0.32,-0.576 -1.024,-1.024 -0.672,-0.48 -1.216,-0.736 -0.544,-0.256 -1.504,-0.64 -1.152,-0.48 -1.888,-0.864 -0.736,-0.384 -1.504,-0.96 -0.768,-0.576 -1.152,-1.344 -0.352,-0.8 -0.352,-1.792 0,-1.856 1.472,-3.008 1.472,-1.152 3.808,-1.152 3.232,0 5.312,2.496 l -1.472,1.248 q -1.76,-1.76 -3.904,-1.76 -1.408,0 -2.272,0.576 -0.832,0.576 -0.832,1.568 0,0.48 0.224,0.896 0.224,0.416 0.512,0.704 0.288,0.256 0.896,0.608 0.608,0.32 0.96,0.48 0.352,0.128 1.152,0.448 0.96,0.384 1.504,0.64 0.544,0.224 1.344,0.736 0.832,0.48 1.248,0.992 0.448,0.48 0.768,1.28 0.352,0.768 0.352,1.728 0,2.048 -1.504,3.264 -1.472,1.216 -4,1.216 z" stroke-width="0" stroke-linejoin="miter" stroke-miterlimit="2" fill="#ff6600" stroke="#ff6600" transform="translate(0 381.172) translate(305.7785 60.872) scale(0.75) translate(-275.32475 16.736)"/>
        <path id="path653326" style="font-style:normal;font-weight:300;font-size:32px;line-height:1;font-family:Overpass;font-variant-ligatures:none;text-align:center;text-anchor:middle" d="m 303.14425,0.384 q -3.232,0 -5.632,-2.848 l 1.568,-1.376 q 1.888,2.24 4.256,2.24 1.408,0 2.304,-0.608 0.896,-0.64 0.896,-1.76 0,-0.704 -0.32,-1.248 -0.32,-0.576 -1.024,-1.024 -0.672,-0.48 -1.216,-0.736 -0.544,-0.256 -1.504,-0.64 -1.152,-0.48 -1.888,-0.864 -0.736,-0.384 -1.504,-0.96 -0.768,-0.576 -1.152,-1.344 -0.352,-0.8 -0.352,-1.792 0,-1.856 1.472,-3.008 1.472,-1.152 3.808,-1.152 3.232,0 5.312,2.496 l -1.472,1.248 q -1.76,-1.76 -3.904,-1.76 -1.408,0 -2.272,0.576 -0.832,0.576 -0.832,1.568 0,0.48 0.224,0.896 0.224,0.416 0.512,0.704 0.288,0.256 0.896,0.608 0.608,0.32 0.96,0.48 0.352,0.128 1.152,0.448 0.96,0.384 1.504,0.64 0.544,0.224 1.344,0.736 0.832,0.48 1.248,0.992 0.448,0.48 0.768,1.28 0.352,0.768 0.352,1.728 0,2.048 -1.504,3.264 -1.472,1.216 -4,1.216 z" stroke-width="0" stroke-linejoin="miter" stroke-miterlimit="2" fill="#ff6600" stroke="#ff6600" transform="translate(0 381.172) translate(324.66912499999995 60.872) scale(0.75) translate(-297.51225 16.736)"/>
        <path id="path653328" style="font-style:normal;font-weight:300;font-size:32px;line-height:1;font-family:Overpass;font-variant-ligatures:none;text-align:center;text-anchor:middle" d="m 322.75675,0 v -1.6 q -2.208,1.984 -4.8,1.984 -2.56,0 -4.064,-1.408 -1.504,-1.44 -1.504,-4.128 0,-2.656 1.696,-4.032 1.728,-1.376 4.256,-1.376 2.272,0 4.416,1.152 v -1.376 q 0,-4 -3.584,-4 -2.304,0 -4.864,1.76 l -0.64,-1.92 q 2.816,-1.792 5.728,-1.792 0.992,0 1.856,0.256 0.864,0.224 1.696,0.832 0.864,0.576 1.376,1.76 0.512,1.152 0.512,2.816 V 0 Z m -4.576,-1.568 q 2.528,0 4.576,-2.528 v -3.168 q -2.016,-1.344 -4.192,-1.344 -1.76,0 -2.944,0.896 -1.152,0.864 -1.152,2.56 0,1.632 0.96,2.624 0.992,0.96 2.752,0.96 z" stroke-width="0" stroke-linejoin="miter" stroke-miterlimit="2" fill="#ff6600" stroke="#ff6600" transform="translate(0 381.172) translate(338.0764999999999 60.872) scale(0.75) translate(-312.38875 16.736)"/>
        <path id="path653330" style="font-style:normal;font-weight:300;font-size:32px;line-height:1;font-family:Overpass;font-variant-ligatures:none;text-align:center;text-anchor:middle" d="m 332.59775,-18.432 4.544,-4.992 h 3.424 l -5.696,4.992 z M 339.89375,0 v -1.568 q -0.832,1.088 -1.792,1.536 -0.928,0.416 -2.272,0.416 -3.168,0 -4.608,-1.792 -1.408,-1.792 -1.408,-5.824 v -9.12 h 2.24 v 9.984 q 0,2.432 1.024,3.584 1.024,1.152 2.752,1.152 4.064,0 4.064,-4.672 v -10.048 h 2.24 V 0 Z" stroke-width="0" stroke-linejoin="miter" stroke-miterlimit="2" fill="#ff6600" stroke="#ff6600" transform="translate(0 381.172) translate(353.3952499999999 55.856) scale(0.75) translate(-329.81375 23.424)"/>
        <path id="path653332" style="font-style:normal;font-weight:300;font-size:32px;line-height:1;font-family:Overpass;font-variant-ligatures:none;text-align:center;text-anchor:middle" d="m 353.54325,0.384 q -3.136,0 -4.96,-2.304 -1.792,-2.336 -1.792,-6.272 0,-4 1.792,-6.272 1.824,-2.272 4.96,-2.272 2.432,0 4.352,1.536 v -6.784 l 2.24,-1.12 V 0 h -2.24 v -1.408 q -1.792,1.792 -4.352,1.792 z m 0.256,-2.016 q 1.248,0 2.336,-0.672 1.088,-0.672 1.76,-1.888 v -8.16 q -1.472,-2.368 -4.096,-2.368 -2.24,0 -3.456,1.696 -1.216,1.696 -1.216,4.832 0,2.816 1.28,4.704 1.28,1.856 3.392,1.856 z" stroke-width="0" stroke-linejoin="miter" stroke-miterlimit="2" fill="#ff6600" stroke="#ff6600" transform="translate(0 381.172) translate(368.3783749999999 56.096) scale(0.75) translate(-346.79125 23.104)"/>
        <path id="path653334" style="font-style:normal;font-weight:300;font-size:32px;line-height:1;font-family:Overpass;font-variant-ligatures:none;text-align:center;text-anchor:middle" d="m 371.89525,0.384 q -3.2,0 -5.152,-2.496 -1.952,-2.496 -1.952,-6.08 0,-4 1.952,-6.272 1.952,-2.272 5.152,-2.272 2.816,0 4.64,2.016 1.824,1.984 1.824,5.888 0,0.864 -0.064,1.568 h -11.136 q 0.288,2.56 1.536,4.064 1.248,1.504 3.296,1.504 1.952,0 3.68,-1.28 l 1.216,1.504 q -2.24,1.856 -4.992,1.856 z m -4.8,-9.664 h 8.992 q -0.032,-2.976 -1.312,-4.192 -1.248,-1.248 -2.88,-1.248 -2.048,0 -3.36,1.376 -1.312,1.376 -1.44,4.064 z" stroke-width="0" stroke-linejoin="miter" stroke-miterlimit="2" fill="#ff6600" stroke="#ff6600" transform="translate(0 381.172) translate(384.1283749999999 60.872) scale(0.75) translate(-364.79125 16.736)"/>
        <path id="path653336" style="font-style:normal;font-weight:300;font-size:32px;line-height:1;font-family:Overpass;font-variant-ligatures:none;text-align:center;text-anchor:middle" d="m 394.83175,0.384 q -3.232,0 -5.632,-2.848 l 1.568,-1.376 q 1.888,2.24 4.256,2.24 1.408,0 2.304,-0.608 0.896,-0.64 0.896,-1.76 0,-0.704 -0.32,-1.248 -0.32,-0.576 -1.024,-1.024 -0.672,-0.48 -1.216,-0.736 -0.544,-0.256 -1.504,-0.64 -1.152,-0.48 -1.888,-0.864 -0.736,-0.384 -1.504,-0.96 -0.768,-0.576 -1.152,-1.344 -0.352,-0.8 -0.352,-1.792 0,-1.856 1.472,-3.008 1.472,-1.152 3.808,-1.152 3.232,0 5.312,2.496 l -1.472,1.248 q -1.76,-1.76 -3.904,-1.76 -1.408,0 -2.272,0.576 -0.832,0.576 -0.832,1.568 0,0.48 0.224,0.896 0.224,0.416 0.512,0.704 0.288,0.256 0.896,0.608 0.608,0.32 0.96,0.48 0.352,0.128 1.152,0.448 0.96,0.384 1.504,0.64 0.544,0.224 1.344,0.736 0.832,0.48 1.248,0.992 0.448,0.48 0.768,1.28 0.352,0.768 0.352,1.728 0,2.048 -1.504,3.264 -1.472,1.216 -4,1.216 z" stroke-width="0" stroke-linejoin="miter" stroke-miterlimit="2" fill="#ff6600" stroke="#ff6600" transform="translate(0 381.172) translate(404.6847499999999 60.872) scale(0.75) translate(-389.19975 16.736)"/>
        <path id="path653338" style="font-style:normal;font-weight:300;font-size:32px;line-height:1;font-family:Overpass;font-variant-ligatures:none;text-align:center;text-anchor:middle" d="m 411.02025,0.384 q -3.2,0 -5.152,-2.496 -1.952,-2.496 -1.952,-6.08 0,-4 1.952,-6.272 1.952,-2.272 5.152,-2.272 2.816,0 4.64,2.016 1.824,1.984 1.824,5.888 0,0.864 -0.064,1.568 h -11.136 q 0.288,2.56 1.536,4.064 1.248,1.504 3.296,1.504 1.952,0 3.68,-1.28 l 1.216,1.504 q -2.24,1.856 -4.992,1.856 z m -4.8,-9.664 h 8.992 q -0.032,-2.976 -1.312,-4.192 -1.248,-1.248 -2.88,-1.248 -2.048,0 -3.36,1.376 -1.312,1.376 -1.44,4.064 z" stroke-width="0" stroke-linejoin="miter" stroke-miterlimit="2" fill="#ff6600" stroke="#ff6600" transform="translate(0 381.172) translate(417.97212499999983 60.872) scale(0.75) translate(-403.91625 16.736)"/>
        <path id="path653340" style="font-style:normal;font-weight:300;font-size:32px;line-height:1;font-family:Overpass;font-variant-ligatures:none;text-align:center;text-anchor:middle" d="m 441.10975,0 v -10.016 q 0,-4.704 -3.552,-4.704 -1.76,0 -2.784,1.376 -0.992,1.344 -0.992,3.328 V 0 h -2.24 v -10.016 q 0,-4.704 -3.552,-4.704 -1.824,0 -2.816,1.248 -0.96,1.216 -0.96,3.2 V 0 h -2.24 v -16.352 h 2.24 v 1.6 q 1.696,-1.984 4.448,-1.984 1.312,0 2.528,0.672 1.216,0.672 1.888,1.824 0.704,-1.088 1.92,-1.792 1.248,-0.704 2.752,-0.704 2.432,0 4,1.6 1.6,1.6 1.6,4.256 V 0 Z" stroke-width="0" stroke-linejoin="miter" stroke-miterlimit="2" fill="#ff6600" stroke="#ff6600" transform="translate(0 381.172) translate(433.7652499999998 60.872) scale(0.75) translate(-421.97375 16.736)"/>
        <path id="path653342" style="font-style:normal;font-weight:300;font-size:32px;line-height:1;font-family:Overpass;font-variant-ligatures:none;text-align:center;text-anchor:middle" d="m 461.98075,0.384 q -3.136,0 -4.96,-2.304 -1.792,-2.336 -1.792,-6.272 0,-4 1.792,-6.272 1.824,-2.272 4.96,-2.272 2.432,0 4.352,1.536 v -6.784 l 2.24,-1.12 V 0 h -2.24 v -1.408 q -1.792,1.792 -4.352,1.792 z m 0.256,-2.016 q 1.248,0 2.336,-0.672 1.088,-0.672 1.76,-1.888 v -8.16 q -1.472,-2.368 -4.096,-2.368 -2.24,0 -3.456,1.696 -1.216,1.696 -1.216,4.832 0,2.816 1.28,4.704 1.28,1.856 3.392,1.856 z" stroke-width="0" stroke-linejoin="miter" stroke-miterlimit="2" fill="#ff6600" stroke="#ff6600" transform="translate(0 381.172) translate(460.9564999999998 56.096) scale(0.75) translate(-455.22875 23.104)"/>
        <path id="path653344" style="font-style:normal;font-weight:300;font-size:32px;line-height:1;font-family:Overpass;font-variant-ligatures:none;text-align:center;text-anchor:middle" d="m 480.33275,0.384 q -3.2,0 -5.152,-2.496 -1.952,-2.496 -1.952,-6.08 0,-4 1.952,-6.272 1.952,-2.272 5.152,-2.272 2.816,0 4.64,2.016 1.824,1.984 1.824,5.888 0,0.864 -0.064,1.568 h -11.136 q 0.288,2.56 1.536,4.064 1.248,1.504 3.296,1.504 1.952,0 3.68,-1.28 l 1.216,1.504 q -2.24,1.856 -4.992,1.856 z m -4.8,-9.664 h 8.992 q -0.032,-2.976 -1.312,-4.192 -1.248,-1.248 -2.88,-1.248 -2.048,0 -3.36,1.376 -1.312,1.376 -1.44,4.064 z" stroke-width="0" stroke-linejoin="miter" stroke-miterlimit="2" fill="#ff6600" stroke="#ff6600" transform="translate(0 381.172) translate(476.7064999999998 60.872) scale(0.75) translate(-473.22875 16.736)"/>
        <path id="path653346" style="font-style:normal;font-weight:300;font-size:32px;line-height:1;font-family:Overpass;font-variant-ligatures:none;text-align:center;text-anchor:middle" d="m 495.89425,0.384 q -3.232,0 -5.632,-2.848 l 1.568,-1.376 q 1.888,2.24 4.256,2.24 1.408,0 2.304,-0.608 0.896,-0.64 0.896,-1.76 0,-0.704 -0.32,-1.248 -0.32,-0.576 -1.024,-1.024 -0.672,-0.48 -1.216,-0.736 -0.544,-0.256 -1.504,-0.64 -1.152,-0.48 -1.888,-0.864 -0.736,-0.384 -1.504,-0.96 -0.768,-0.576 -1.152,-1.344 -0.352,-0.8 -0.352,-1.792 0,-1.856 1.472,-3.008 1.472,-1.152 3.808,-1.152 3.232,0 5.312,2.496 l -1.472,1.248 q -1.76,-1.76 -3.904,-1.76 -1.408,0 -2.272,0.576 -0.832,0.576 -0.832,1.568 0,0.48 0.224,0.896 0.224,0.416 0.512,0.704 0.288,0.256 0.896,0.608 0.608,0.32 0.96,0.48 0.352,0.128 1.152,0.448 0.96,0.384 1.504,0.64 0.544,0.224 1.344,0.736 0.832,0.48 1.248,0.992 0.448,0.48 0.768,1.28 0.352,0.768 0.352,1.728 0,2.048 -1.504,3.264 -1.472,1.216 -4,1.216 z" stroke-width="0" stroke-linejoin="miter" stroke-miterlimit="2" fill="#ff6600" stroke="#ff6600" transform="translate(0 381.172) translate(491.7316249999998 60.872) scale(0.75) translate(-490.26225 16.736)"/>
        <path id="path653348" style="font-style:normal;font-weight:300;font-size:32px;line-height:1;font-family:Overpass;font-variant-ligatures:none;text-align:center;text-anchor:middle" d="m 512.81875,0.384 q -2.72,0 -4.48,-2.048 v 7.04 l -2.24,1.12 v -22.848 h 2.24 v 1.472 q 2.048,-1.856 4.48,-1.856 3.136,0 4.928,2.336 1.824,2.304 1.824,6.208 0,4.032 -1.888,6.304 -1.856,2.272 -4.864,2.272 z m -0.256,-2.016 q 2.24,0 3.456,-1.696 1.216,-1.696 1.216,-4.864 0,-3.008 -1.248,-4.768 -1.248,-1.76 -3.424,-1.76 -1.312,0 -2.432,0.672 -1.12,0.672 -1.792,1.856 v 8.032 q 1.952,2.528 4.224,2.528 z" stroke-width="0" stroke-linejoin="miter" stroke-miterlimit="2" fill="#ff6600" stroke="#ff6600" transform="translate(0 381.172) translate(505.85899999999975 60.872) scale(0.75) translate(-506.09875 16.736)"/>
        <path id="path653350" style="font-style:normal;font-weight:300;font-size:32px;line-height:1;font-family:Overpass;font-variant-ligatures:none;text-align:center;text-anchor:middle" d="m 530.20775,0.384 q -3.2,0 -5.152,-2.496 -1.952,-2.496 -1.952,-6.08 0,-4 1.952,-6.272 1.952,-2.272 5.152,-2.272 2.816,0 4.64,2.016 1.824,1.984 1.824,5.888 0,0.864 -0.064,1.568 h -11.136 q 0.288,2.56 1.536,4.064 1.248,1.504 3.296,1.504 1.952,0 3.68,-1.28 l 1.216,1.504 q -2.24,1.856 -4.992,1.856 z m -4.8,-9.664 h 8.992 q -0.032,-2.976 -1.312,-4.192 -1.248,-1.248 -2.88,-1.248 -2.048,0 -3.36,1.376 -1.312,1.376 -1.44,4.064 z" stroke-width="0" stroke-linejoin="miter" stroke-miterlimit="2" fill="#ff6600" stroke="#ff6600" transform="translate(0 381.172) translate(520.8627499999998 60.872) scale(0.75) translate(-523.10375 16.736)"/>
        <path id="path653352" style="font-style:normal;font-weight:300;font-size:32px;line-height:1;font-family:Overpass;font-variant-ligatures:none;text-align:center;text-anchor:middle" d="m 541.16125,0 v -16.352 h 2.24 v 2.304 q 1.248,-2.688 4.128,-2.688 1.376,0 2.304,0.672 l -0.352,2.176 q -0.992,-0.608 -2.112,-0.608 -1.504,0 -2.752,1.28 -1.216,1.248 -1.216,3.968 V 0 Z" stroke-width="0" stroke-linejoin="miter" stroke-miterlimit="2" fill="#ff6600" stroke="#ff6600" transform="translate(0 381.172) translate(536.6558749999998 60.872) scale(0.75) translate(-541.16125 16.736)"/>
        <path id="path653354" style="font-style:normal;font-weight:300;font-size:32px;line-height:1;font-family:Overpass;font-variant-ligatures:none;text-align:center;text-anchor:middle" d="m 558.98075,0.384 q -3.136,0 -4.96,-2.304 -1.792,-2.336 -1.792,-6.272 0,-4 1.792,-6.272 1.824,-2.272 4.96,-2.272 2.432,0 4.352,1.536 v -6.784 l 2.24,-1.12 V 0 h -2.24 v -1.408 q -1.792,1.792 -4.352,1.792 z m 0.256,-2.016 q 1.248,0 2.336,-0.672 1.088,-0.672 1.76,-1.888 v -8.16 q -1.472,-2.368 -4.096,-2.368 -2.24,0 -3.456,1.696 -1.216,1.696 -1.216,4.832 0,2.816 1.28,4.704 1.28,1.856 3.392,1.856 z" stroke-width="0" stroke-linejoin="miter" stroke-miterlimit="2" fill="#ff6600" stroke="#ff6600" transform="translate(0 381.172) translate(547.2064999999998 56.096) scale(0.75) translate(-552.22875 23.104)"/>
        <path id="path653356" style="font-style:normal;font-weight:300;font-size:32px;line-height:1;font-family:Overpass;font-variant-ligatures:none;text-align:center;text-anchor:middle" d="m 573.55675,-20.128 q -0.416,0.416 -1.056,0.416 -0.64,0 -1.056,-0.416 -0.416,-0.416 -0.416,-1.056 0,-0.64 0.416,-1.088 0.448,-0.448 1.056,-0.448 0.64,0 1.056,0.448 0.416,0.448 0.416,1.088 0,0.64 -0.416,1.056 z M 571.38075,0 v -16.352 h 2.24 V 0 Z" stroke-width="0" stroke-linejoin="miter" stroke-miterlimit="2" fill="#ff6600" stroke="#ff6600" transform="translate(0 381.172) translate(563.5564999999997 56.384) scale(0.75) translate(-571.02875 22.72)"/>
        <path id="path653358" style="font-style:normal;font-weight:300;font-size:32px;line-height:1;font-family:Overpass;font-variant-ligatures:none;text-align:center;text-anchor:middle" d="m 584.65925,7.488 q -1.76,0 -2.816,-0.896 l 1.472,-0.96 q 0.256,0.32 1.152,0.32 0.672,0 1.184,-0.48 0.544,-0.48 0.544,-1.152 0,-0.608 -0.64,-1.088 -0.608,-0.448 -1.344,-0.448 -0.8,0 -1.152,0.16 l -0.384,-0.48 1.632,-2.112 q -2.784,-0.16 -4.416,-2.368 -1.6,-2.24 -1.6,-6.144 0,-4.032 1.792,-6.304 1.792,-2.272 4.928,-2.272 1.824,0 3.2,0.896 1.376,0.896 2.048,2.528 l -2.048,0.8 q -0.896,-2.208 -3.296,-2.208 -4.288,0 -4.288,6.56 0,6.528 4.224,6.528 1.312,0 2.24,-0.672 0.96,-0.672 1.376,-1.824 l 2.016,0.768 q -0.512,1.504 -1.76,2.464 -1.216,0.96 -2.944,1.216 l -0.864,1.44 q 1.728,0 2.496,0.736 0.8,0.768 0.8,1.856 0,1.376 -1.024,2.24 -0.992,0.896 -2.528,0.896 z" stroke-width="0" stroke-linejoin="miter" stroke-miterlimit="2" fill="#ff6600" stroke="#ff6600" transform="translate(0 381.172) translate(571.2533749999998 60.872) scale(0.75) translate(-578.29125 16.736)"/>
        <path id="path653360" style="font-style:normal;font-weight:300;font-size:32px;line-height:1;font-family:Overpass;font-variant-ligatures:none;text-align:center;text-anchor:middle" d="m 603.88175,0 v -1.6 q -2.208,1.984 -4.8,1.984 -2.56,0 -4.064,-1.408 -1.504,-1.44 -1.504,-4.128 0,-2.656 1.696,-4.032 1.728,-1.376 4.256,-1.376 2.272,0 4.416,1.152 v -1.376 q 0,-4 -3.584,-4 -2.304,0 -4.864,1.76 l -0.64,-1.92 q 2.816,-1.792 5.728,-1.792 0.992,0 1.856,0.256 0.864,0.224 1.696,0.832 0.864,0.576 1.376,1.76 0.512,1.152 0.512,2.816 V 0 Z m -4.576,-1.568 q 2.528,0 4.576,-2.528 v -3.168 q -2.016,-1.344 -4.192,-1.344 -1.76,0 -2.944,0.896 -1.152,0.864 -1.152,2.56 0,1.632 0.96,2.624 0.992,0.96 2.752,0.96 z" stroke-width="0" stroke-linejoin="miter" stroke-miterlimit="2" fill="#ff6600" stroke="#ff6600" transform="translate(0 381.172) translate(584.9202499999998 60.872) scale(0.75) translate(-593.51375 16.736)"/>
        <path id="path653362" style="font-style:normal;font-weight:300;font-size:32px;line-height:1;font-family:Overpass;font-variant-ligatures:none;text-align:center;text-anchor:middle" d="m 611.09875,0 v -16.352 h 2.24 v 2.304 q 1.248,-2.688 4.128,-2.688 1.376,0 2.304,0.672 l -0.352,2.176 q -0.992,-0.608 -2.112,-0.608 -1.504,0 -2.752,1.28 -1.216,1.248 -1.216,3.968 V 0 Z" stroke-width="0" stroke-linejoin="miter" stroke-miterlimit="2" fill="#ff6600" stroke="#ff6600" transform="translate(0 381.172) translate(600.3589999999998 60.872) scale(0.75) translate(-611.09875 16.736)"/>
        <path id="path653364" style="font-style:normal;font-weight:300;font-size:32px;line-height:1;font-family:Overpass;font-variant-ligatures:none;text-align:center;text-anchor:middle" d="m 636.54925,0.384 q -3.2,0 -5.12,-2.24 -1.888,-2.272 -1.888,-6.304 0,-4 1.92,-6.272 1.92,-2.304 5.088,-2.304 3.2,0 5.088,2.272 1.92,2.24 1.92,6.272 0,4 -1.92,6.304 -1.92,2.272 -5.088,2.272 z m 0,-2.016 q 2.208,0 3.424,-1.728 1.248,-1.76 1.248,-4.832 0,-3.072 -1.216,-4.8 -1.184,-1.728 -3.456,-1.728 -2.272,0 -3.488,1.696 -1.184,1.664 -1.184,4.864 0,3.072 1.184,4.8 1.216,1.728 3.488,1.728 z" stroke-width="0" stroke-linejoin="miter" stroke-miterlimit="2" fill="#ff6600" stroke="#ff6600" transform="translate(0 381.172) translate(616.4408749999998 60.872) scale(0.75) translate(-629.54125 16.736)"/>
        <path id="path653366" style="font-style:normal;font-weight:300;font-size:32px;line-height:1;font-family:Overpass;font-variant-ligatures:none;text-align:center;text-anchor:middle" d="m 660.20675,0.384 q -3.232,0 -5.632,-2.848 l 1.568,-1.376 q 1.888,2.24 4.256,2.24 1.408,0 2.304,-0.608 0.896,-0.64 0.896,-1.76 0,-0.704 -0.32,-1.248 -0.32,-0.576 -1.024,-1.024 -0.672,-0.48 -1.216,-0.736 -0.544,-0.256 -1.504,-0.64 -1.152,-0.48 -1.888,-0.864 -0.736,-0.384 -1.504,-0.96 -0.768,-0.576 -1.152,-1.344 -0.352,-0.8 -0.352,-1.792 0,-1.856 1.472,-3.008 1.472,-1.152 3.808,-1.152 3.232,0 5.312,2.496 l -1.472,1.248 q -1.76,-1.76 -3.904,-1.76 -1.408,0 -2.272,0.576 -0.832,0.576 -0.832,1.568 0,0.48 0.224,0.896 0.224,0.416 0.512,0.704 0.288,0.256 0.896,0.608 0.608,0.32 0.96,0.48 0.352,0.128 1.152,0.448 0.96,0.384 1.504,0.64 0.544,0.224 1.344,0.736 0.832,0.48 1.248,0.992 0.448,0.48 0.768,1.28 0.352,0.768 0.352,1.728 0,2.048 -1.504,3.264 -1.472,1.216 -4,1.216 z" stroke-width="0" stroke-linejoin="miter" stroke-miterlimit="2" fill="#ff6600" stroke="#ff6600" transform="translate(0 381.172) translate(637.4659999999998 60.872) scale(0.75) translate(-654.57475 16.736)"/>
        <path id="path653368" style="font-style:normal;font-weight:300;font-size:32px;line-height:1;font-family:Overpass;font-variant-ligatures:none;text-align:center;text-anchor:middle" d="m 676.39525,0.384 q -3.2,0 -5.152,-2.496 -1.952,-2.496 -1.952,-6.08 0,-4 1.952,-6.272 1.952,-2.272 5.152,-2.272 2.816,0 4.64,2.016 1.824,1.984 1.824,5.888 0,0.864 -0.064,1.568 h -11.136 q 0.288,2.56 1.536,4.064 1.248,1.504 3.296,1.504 1.952,0 3.68,-1.28 l 1.216,1.504 q -2.24,1.856 -4.992,1.856 z m -4.8,-9.664 h 8.992 q -0.032,-2.976 -1.312,-4.192 -1.248,-1.248 -2.88,-1.248 -2.048,0 -3.36,1.376 -1.312,1.376 -1.44,4.064 z" stroke-width="0" stroke-linejoin="miter" stroke-miterlimit="2" fill="#ff6600" stroke="#ff6600" transform="translate(0 381.172) translate(650.7533749999998 60.872) scale(0.75) translate(-669.29125 16.736)"/>
        <path id="path653370" style="font-style:normal;font-weight:300;font-size:32px;line-height:1;font-family:Overpass;font-variant-ligatures:none;text-align:center;text-anchor:middle" d="m 697.26875,0 v -1.568 q -0.832,1.088 -1.792,1.536 -0.928,0.416 -2.272,0.416 -3.168,0 -4.608,-1.792 -1.408,-1.792 -1.408,-5.824 v -9.12 h 2.24 v 9.984 q 0,2.432 1.024,3.584 1.024,1.152 2.752,1.152 4.064,0 4.064,-4.672 v -10.048 h 2.24 V 0 Z" stroke-width="0" stroke-linejoin="miter" stroke-miterlimit="2" fill="#ff6600" stroke="#ff6600" transform="translate(0 381.172) translate(666.4264999999998 61.160000000000004) scale(0.75) translate(-687.18875 16.352)"/>
        <path id="path653372" style="font-style:normal;font-weight:300;font-size:32px;line-height:1;font-family:Overpass;font-variant-ligatures:none;text-align:center;text-anchor:middle" d="m 716.75725,0.384 q -3.232,0 -3.232,-3.744 v -10.976 h -2.784 v -2.016 h 2.784 v -5.632 l 2.24,-1.12 v 6.752 h 4.16 v 2.016 h -4.16 V -4.32 q 0,1.248 0.352,1.92 0.352,0.672 1.408,0.672 1.056,0 2.464,-0.96 l -0.256,2.336 q -1.376,0.736 -2.976,0.736 z" stroke-width="0" stroke-linejoin="miter" stroke-miterlimit="2" fill="#ff6600" stroke="#ff6600" transform="translate(0 381.172) translate(686.3408749999998 56.096) scale(0.75) translate(-710.74125 23.104)"/>
        <path id="path653374" style="font-style:normal;font-weight:300;font-size:32px;line-height:1;font-family:Overpass;font-variant-ligatures:none;text-align:center;text-anchor:middle" d="m 730.14525,0.384 q -3.2,0 -5.152,-2.496 -1.952,-2.496 -1.952,-6.08 0,-4 1.952,-6.272 1.952,-2.272 5.152,-2.272 2.816,0 4.64,2.016 1.824,1.984 1.824,5.888 0,0.864 -0.064,1.568 h -11.136 q 0.288,2.56 1.536,4.064 1.248,1.504 3.296,1.504 1.952,0 3.68,-1.28 l 1.216,1.504 q -2.24,1.856 -4.992,1.856 z m -4.8,-9.664 h 8.992 q -0.032,-2.976 -1.312,-4.192 -1.248,-1.248 -2.88,-1.248 -2.048,0 -3.36,1.376 -1.312,1.376 -1.44,4.064 z" stroke-width="0" stroke-linejoin="miter" stroke-miterlimit="2" fill="#ff6600" stroke="#ff6600" transform="translate(0 381.172) translate(697.8158749999998 60.872) scale(0.75) translate(-723.04125 16.736)"/>
        <path id="path653376" style="font-style:normal;font-weight:300;font-size:32px;line-height:1;font-family:Overpass;font-variant-ligatures:none;text-align:center;text-anchor:middle" d="m 760.23475,0 v -10.016 q 0,-4.704 -3.552,-4.704 -1.76,0 -2.784,1.376 -0.992,1.344 -0.992,3.328 V 0 h -2.24 v -10.016 q 0,-4.704 -3.552,-4.704 -1.824,0 -2.816,1.248 -0.96,1.216 -0.96,3.2 V 0 h -2.24 v -16.352 h 2.24 v 1.6 q 1.696,-1.984 4.448,-1.984 1.312,0 2.528,0.672 1.216,0.672 1.888,1.824 0.704,-1.088 1.92,-1.792 1.248,-0.704 2.752,-0.704 2.432,0 4,1.6 1.6,1.6 1.6,4.256 V 0 Z" stroke-width="0" stroke-linejoin="miter" stroke-miterlimit="2" fill="#ff6600" stroke="#ff6600" transform="translate(0 381.172) translate(713.6089999999998 60.872) scale(0.75) translate(-741.09875 16.736)"/>
        <path id="path653378" style="font-style:normal;font-weight:300;font-size:32px;line-height:1;font-family:Overpass;font-variant-ligatures:none;text-align:center;text-anchor:middle" d="m 774.81875,0.384 q -2.72,0 -4.48,-2.048 v 7.04 l -2.24,1.12 v -22.848 h 2.24 v 1.472 q 2.048,-1.856 4.48,-1.856 3.136,0 4.928,2.336 1.824,2.304 1.824,6.208 0,4.032 -1.888,6.304 -1.856,2.272 -4.864,2.272 z m -0.256,-2.016 q 2.24,0 3.456,-1.696 1.216,-1.696 1.216,-4.864 0,-3.008 -1.248,-4.768 -1.248,-1.76 -3.424,-1.76 -1.312,0 -2.432,0.672 -1.12,0.672 -1.792,1.856 v 8.032 q 1.952,2.528 4.224,2.528 z" stroke-width="0" stroke-linejoin="miter" stroke-miterlimit="2" fill="#ff6600" stroke="#ff6600" transform="translate(0 381.172) translate(736.1089999999999 60.872) scale(0.75) translate(-768.09875 16.736)"/>
        <path id="path653380" style="font-style:normal;font-weight:300;font-size:32px;line-height:1;font-family:Overpass;font-variant-ligatures:none;text-align:center;text-anchor:middle" d="m 792.11175,0.384 q -3.2,0 -5.12,-2.24 -1.888,-2.272 -1.888,-6.304 0,-4 1.92,-6.272 1.92,-2.304 5.088,-2.304 3.2,0 5.088,2.272 1.92,2.24 1.92,6.272 0,4 -1.92,6.304 -1.92,2.272 -5.088,2.272 z m 0,-2.016 q 2.208,0 3.424,-1.728 1.248,-1.76 1.248,-4.832 0,-3.072 -1.216,-4.8 -1.184,-1.728 -3.456,-1.728 -2.272,0 -3.488,1.696 -1.184,1.664 -1.184,4.864 0,3.072 1.184,4.8 1.216,1.728 3.488,1.728 z" stroke-width="0" stroke-linejoin="miter" stroke-miterlimit="2" fill="#ff6600" stroke="#ff6600" transform="translate(0 381.172) translate(751.11275 60.872) scale(0.75) translate(-785.10375 16.736)"/>
      </g>
      <g id="title" style="font-style:normal;font-weight:normal;font-size:72px;line-height:1;font-family:'Brandmark Sans 14 Color';font-variant-ligatures:normal;text-align:center;text-anchor:middle" transform="translate(0 0)">
        <g id="path653383" aria-label="U" transform="translate(0 311.14) translate(266.54538 3.4159999999999897) scale(2) translate(-403.3745 49.968)"> <path class="c1" d="M121.16182,72.04483v29.83716c0,7.55994-1.83887,21.45935-21.18262,21.45935 s-21.18262-13.89941-21.18262-21.45935V72.04483h12.47705v27.73962c0,11.21643,4.35352,12.19434,8.70557,12.19434 c4.35303,0,8.70557-0.97864,8.70557-12.19434V72.04483H121.16182z" transform="translate(324.57792 -122.01283)" stroke-width="0" stroke-linejoin="miter" stroke-miterlimit="2" fill="#007bc2" stroke="#699dff"/> </g>
        <g id="path653385" aria-label="b" transform="translate(0 311.14) translate(379.13364 -3.3519999999999968) scale(2) translate(-452.66863 53.352)"> <path class="c1" d="M119.99617,105.14103c0,9.99377-7.30786,18.09521-16.32166,18.09521 c-3.9668,0-7.60095-1.56982-10.43005-4.17786v2.93787H81.46065V68.62162h11.78381v22.60205 c2.8291-2.60803,6.46326-4.17786,10.43005-4.17786C112.68831,87.04581,119.99544,95.14725,119.99617,105.14103z M107.89192,105.14103c0-4.3009-3.34326-7.78821-7.46777-7.78821s-7.17969,3.4873-7.17969,7.78821 c0,4.30164,3.05518,7.78894,7.17969,7.78894C104.54805,112.92997,107.89192,109.44193,107.89192,105.14103z" transform="translate(371.20798 -121.97362)" stroke-width="0" stroke-linejoin="miter" stroke-miterlimit="2" fill="#007bc2" stroke="#007bc2"/> </g>
        <g id="path653387" aria-label="s" transform="translate(0 311.14) translate(476.28238 33.07999999999999) scale(2) translate(-494.243 35.136)"> <path class="c1" d="M114.11397,110.5004c0,9.28809-8.54883,12.75159-15.70996,12.75159s-13.19922-3.89832-13.19922-3.89832 l4.25-8.45715c0,0,4.67725,3.43616,9.27148,3.43616c1.9165,0,3.66992-1.17957,3.66992-2.57642 c0-5.26074-14.6792-0.70142-14.6792-12.61914c0-9.45654,8.51318-12.28857,14.74414-12.28857 c3.50537,0,7.99268,0.89429,10.62305,2.18042l-3.92822,7.79602c0,0-3.44434-1.71875-6.30908-1.71875 c-2.45605,0-3.60498,1.2356-3.60498,2.44531C99.2419,101.56669,114.11446,98.49418,114.11397,110.5004z" transform="translate(409.03821 -121.98455)" stroke-width="0" stroke-linejoin="miter" stroke-miterlimit="2" fill="#007bc2" stroke="#007bc2"/> </g>
        <g id="path653389" aria-label="O" transform="translate(0 311.14) translate(555.6898799999999 0.9679999999999964) scale(2) translate(-526.94675 51.192)"> <path class="c1" d="M126.87032,97.04678c0,14.50708-12.03467,26.26648-26.88135,26.26648 c-14.84521,0-26.88037-11.7594-26.88037-26.26648s12.03516-26.26709,26.88037-26.26709 C114.83565,70.77969,126.87032,82.5397,126.87032,97.04678z M113.99727,97.04678c0-7.5592-6.271-13.68762-14.0083-13.68762 c-7.73633,0-14.00732,6.12842-14.00732,13.68762s6.27197,13.68774,14.00732,13.68774 C107.72627,110.73453,113.99727,104.60599,113.99727,97.04678z" transform="translate(453.83815 -121.97169)" stroke-width="0" stroke-linejoin="miter" stroke-miterlimit="2" fill="#007bc2" stroke="#007bc2"/> </g>
        <g id="path653391" aria-label="n" transform="translate(0 311.14) translate(687.75864 34.088) scale(2) translate(-585.98113 34.632)"> <path class="c1" d="M117.58809,99.88029v22.11597H105.8044v-17.6991c0-5.45886-1.8916-7.40662-5.27734-7.40662 c-4.90234,0-5.98633,3.88037-5.98633,6.66992v18.43506H82.75655V88.10294h11.78418v4.13318c0,0,2.87305-4.85901,10.42871-4.85901 C111.696,87.37711,117.58809,91.21281,117.58809,99.88029z" transform="translate(503.22458 -122.00911)" stroke-width="0" stroke-linejoin="miter" stroke-miterlimit="2" fill="#007bc2" stroke="#699dff"/> </g>
           </g>
      <image id="icon" x="0" y="0" style="display: none;" xlink:href=""/>
    </g>
  </g></g></svg>